<svg xmlns="http://www.w3.org/2000/svg" viewBox="0 0 56 52" role="img" aria-labelledby="title">
  <title id="title">Símbolo ReVeste</title>
  <g fill="none" stroke-linecap="round" stroke-linejoin="round">
    <path stroke="#315c46" stroke-width="2.7" d="M28 16.5c4.2 0 7-2.4 7-6 0-4-3.2-6.5-7.2-6.5-4.1 0-7.3 2.6-7.3 6.5 0 2.7 1.5 4.5 3.8 6.2v4.1L8.8 29.5c-3.7 2.1-2.2 7.7 2 7.7h34.4c4.2 0 5.7-5.6 2-7.7l-15.5-8.7"/>
    <path stroke="#db6f3d" stroke-width="2.7" d="M13.5 43c8.5 5.3 20.8 5.3 29.2-.2"/>
    <path stroke="#db6f3d" stroke-width="2.7" d="m39.1 40.4 4.1 2.1-2.3 4"/>
    <circle cx="10.5" cy="42.3" r="2.2" fill="#db6f3d" stroke="none"/>
  </g>
</svg>
